# xmcd
#
# Track frame offsets: 
#        150
#        22342
#        54737
#        100862
#        128275
#        152647
#        185050
#        210325
#        233545
#        259575
#        297885
#
# Disc length: 4382 seconds
#
# Revision: 2
# Processed by: cddbd v1.5.2PL0 Copyright (c) Steve Scherf et al.
# Submitted via: ExactAudioCopy v1.0b3
#
DISCID=90111c0b
DTITLE=Various Artist - Soulful Divas Dance Queens
DYEAR=1998
DGENRE=Soul 
TTITLE0=Donna Summer - Bad Girls
TTITLE1=Patti Labelle - Stir It Up
TTITLE2=Linda Clifford - Bridge Over Troubled Water
TTITLE3=Norma Jean Wright - Saturday
TTITLE4=Vicki Sue Robinson - Hold Tight
TTITLE5=Jackie Moore - This Time Baby
TTITLE6=Thelma Houston - You Used To Hold Me So Tight
TTITLE7=Cherly Lynn - New Dress
TTITLE8=Evelyn Champaign King - Flirt
TTITLE9=Steaphanie Mills - A Rush On Me
TTITLE10=Jofy Watley - Don't You Want Me
EXTD=
EXTT0=
EXTT1=
EXTT2=
EXTT3=
EXTT4=
EXTT5=
EXTT6=
EXTT7=
EXTT8=
EXTT9=
EXTT10=
PLAYORDER=
